<svg xmlns="http://www.w3.org/2000/svg" width="1100" height="920" viewBox="0 0 1100 920">
<rect width="100%" height="100%" fill="#fbfaf5" />
<text x="80" y="42" font-size="28" font-family="Verdana" fill="#1f2937">Smart Aircon MPC Demo</text>
<text x="80" y="68" font-size="15" font-family="Verdana" fill="#475569">Forecast-aware MPC pre-heats before a forecast cold front, unlike a reactive thermostat.</text>
<text x="80" y="72" font-size="18" font-family="Verdana" fill="#0f172a">Outdoor temperature forecast</text>
<text x="80" y="342" font-size="18" font-family="Verdana" fill="#0f172a">Room temperature</text>
<text x="80" y="612" font-size="18" font-family="Verdana" fill="#0f172a">HVAC power</text>
<rect x="80" y="90" width="940" height="210" fill="white" stroke="#cbd5e1" />
<line x1="358.0" y1="90" x2="358.0" y2="300" stroke="#ef4444" stroke-dasharray="6 6" />
<rect x="80" y="360" width="940" height="210" fill="white" stroke="#cbd5e1" />
<line x1="358.0" y1="360" x2="358.0" y2="570" stroke="#ef4444" stroke-dasharray="6 6" />
<rect x="80" y="630" width="940" height="210" fill="white" stroke="#cbd5e1" />
<line x1="358.0" y1="630" x2="358.0" y2="840" stroke="#ef4444" stroke-dasharray="6 6" />
<rect x="80" y="391.5" width="940" height="98.7" fill="#dcfce7" opacity="0.45" />
<polyline fill="none" stroke="#0f766e" stroke-width="3.0" stroke-linecap="round" stroke-linejoin="round" points="80.0,90.0 93.2,90.9 106.5,91.7 119.7,92.6 133.0,93.5 146.2,94.4 159.4,95.2 172.7,97.9 185.9,100.5 199.2,103.1 212.4,105.8 225.6,108.4 238.9,111.0 252.1,118.0 265.4,125.0 278.6,132.0 291.8,139.0 305.1,146.0 318.3,153.0 331.5,174.0 344.8,195.0 358.0,216.0 371.3,237.0 384.5,258.0 397.7,279.0 411.0,282.5 424.2,286.0 437.5,289.5 450.7,293.0 463.9,296.5 477.2,300.0 490.4,293.0 503.7,286.0 516.9,279.0 530.1,272.0 543.4,265.0 556.6,258.0 569.9,251.0 583.1,244.0 596.3,237.0 609.6,230.0 622.8,223.0 636.1,216.0 649.3,209.0 662.5,202.0 675.8,195.0 689.0,188.0 702.3,181.0 715.5,174.0 728.7,171.4 742.0,168.8 755.2,166.1 768.5,163.5 781.7,160.9 794.9,158.2 808.2,155.6 821.4,153.0 834.6,150.4 847.9,147.8 861.1,145.1 874.4,142.5 887.6,140.8 900.8,139.0 914.1,137.2 927.3,135.5 940.6,133.8 953.8,132.0 967.0,130.3 980.3,128.5 993.5,126.8 1006.8,125.0 1020.0,123.3" />
<polyline fill="none" stroke="#dc2626" stroke-width="2.5" stroke-linecap="round" stroke-linejoin="round" points="80.0,360.0 93.2,377.0 106.5,393.9 119.7,410.8 133.0,427.6 146.2,444.4 159.4,461.2 172.7,477.9 185.9,494.8 199.2,512.1 212.4,529.6 225.6,547.3 238.9,453.3 252.1,472.9 265.4,493.5 278.6,515.1 291.8,537.7 305.1,449.3 318.3,475.2 331.5,502.0 344.8,532.2 358.0,453.8 371.3,492.0 384.5,533.6 397.7,466.4 411.0,515.7 424.2,565.0 437.5,502.4 450.7,553.1 463.9,491.9 477.2,544.0 490.4,484.1 503.7,535.7 516.9,473.4 530.1,522.6 543.4,570.0 556.6,503.6 569.9,548.7 583.1,480.1 596.3,523.0 609.6,564.1 622.8,491.6 636.1,530.6 649.3,568.0 662.5,491.6 675.8,526.9 689.0,560.6 702.3,480.6 715.5,512.3 728.7,542.4 742.0,459.7 755.2,489.5 768.5,518.4 781.7,546.6 794.9,461.9 808.2,489.8 821.4,516.9 834.6,543.2 847.9,456.7 861.1,482.8 874.4,508.1 887.6,532.7 900.8,444.6 914.1,469.3 927.3,493.4 940.6,516.8 953.8,539.7 967.0,450.0 980.3,473.1 993.5,495.6 1006.8,517.4 1020.0,538.8" />
<polyline fill="none" stroke="#2563eb" stroke-width="2.5" stroke-linecap="round" stroke-linejoin="round" points="80.0,360.0 93.2,409.2 106.5,459.1 119.7,509.7 133.0,465.9 146.2,519.0 159.4,477.7 172.7,533.4 185.9,497.2 199.2,465.5 212.4,438.0 225.6,510.1 238.9,490.0 252.1,474.2 265.4,469.1 278.6,474.7 291.8,490.7 305.1,517.2 318.3,458.7 331.5,411.6 344.8,396.7 358.0,413.7 371.3,462.2 384.5,446.7 397.7,463.1 411.0,511.0 424.2,468.5 437.5,526.9 450.7,494.8 463.9,468.3 477.2,447.5 490.4,527.3 503.7,500.5 516.9,463.4 530.1,511.3 543.4,548.1 556.6,478.7 569.9,494.7 583.1,499.9 596.3,494.6 609.6,478.7 622.8,547.6 636.1,509.9 649.3,557.3 662.5,498.3 675.8,524.7 689.0,540.1 702.3,544.9 715.5,538.9 728.7,522.5 742.0,502.3 755.2,478.4 768.5,450.8 781.7,514.8 794.9,478.8 808.2,534.5 821.4,490.4 834.6,538.0 847.9,485.9 861.1,525.6 874.4,465.7 887.6,497.8 900.8,526.8 914.1,552.8 927.3,480.7 940.6,502.0 953.8,520.4 967.0,535.9 980.3,548.6 993.5,558.5 1006.8,565.6 1020.0,570.0" />
<polyline fill="none" stroke="#dc2626" stroke-width="2.5" stroke-linecap="round" stroke-linejoin="round" points="80.0,840.0 93.2,840.0 106.5,840.0 119.7,840.0 133.0,840.0 146.2,840.0 159.4,840.0 172.7,840.0 185.9,840.0 199.2,840.0 212.4,840.0 225.6,630.0 238.9,840.0 252.1,840.0 265.4,840.0 278.6,840.0 291.8,630.0 305.1,840.0 318.3,840.0 331.5,840.0 344.8,630.0 358.0,840.0 371.3,840.0 384.5,630.0 397.7,840.0 411.0,840.0 424.2,630.0 437.5,840.0 450.7,630.0 463.9,840.0 477.2,630.0 490.4,840.0 503.7,630.0 516.9,840.0 530.1,840.0 543.4,630.0 556.6,840.0 569.9,630.0 583.1,840.0 596.3,840.0 609.6,630.0 622.8,840.0 636.1,840.0 649.3,630.0 662.5,840.0 675.8,840.0 689.0,630.0 702.3,840.0 715.5,840.0 728.7,630.0 742.0,840.0 755.2,840.0 768.5,840.0 781.7,630.0 794.9,840.0 808.2,840.0 821.4,840.0 834.6,630.0 847.9,840.0 861.1,840.0 874.4,840.0 887.6,630.0 900.8,840.0 914.1,840.0 927.3,840.0 940.6,840.0 953.8,630.0 967.0,840.0 980.3,840.0 993.5,840.0 1006.8,840.0 1020.0,630.0" />
<polyline fill="none" stroke="#2563eb" stroke-width="2.5" stroke-linecap="round" stroke-linejoin="round" points="80.0,840.0 93.2,840.0 106.5,840.0 119.7,787.5 133.0,840.0 146.2,787.5 159.4,840.0 172.7,787.5 185.9,787.5 199.2,787.5 212.4,840.0 225.6,787.5 238.9,787.5 252.1,787.5 265.4,787.5 278.6,787.5 291.8,787.5 305.1,735.0 318.3,735.0 331.5,735.0 344.8,735.0 358.0,735.0 371.3,682.5 384.5,682.5 397.7,682.5 411.0,630.0 424.2,682.5 437.5,630.0 450.7,630.0 463.9,630.0 477.2,682.5 490.4,630.0 503.7,630.0 516.9,682.5 530.1,682.5 543.4,630.0 556.6,682.5 569.9,682.5 583.1,682.5 596.3,682.5 609.6,735.0 622.8,682.5 636.1,735.0 649.3,682.5 662.5,735.0 675.8,735.0 689.0,735.0 702.3,735.0 715.5,735.0 728.7,735.0 742.0,735.0 755.2,735.0 768.5,787.5 781.7,735.0 794.9,787.5 808.2,735.0 821.4,787.5 834.6,735.0 847.9,787.5 861.1,735.0 874.4,787.5 887.6,787.5 900.8,787.5 914.1,735.0 927.3,787.5 940.6,787.5 953.8,787.5 967.0,787.5 980.3,787.5 993.5,787.5 1006.8,787.5 1020.0,840.0" />
<line x1="80" y1="845" x2="118" y2="845" stroke="#0f766e" stroke-width="4" />
<text x="130" y="850" font-size="16" font-family="Verdana" fill="#0f172a">Outdoor forecast</text>
<line x1="340" y1="845" x2="378" y2="845" stroke="#dc2626" stroke-width="4" />
<text x="390" y="850" font-size="16" font-family="Verdana" fill="#0f172a">Reactive thermostat</text>
<line x1="650" y1="845" x2="688" y2="845" stroke="#2563eb" stroke-width="4" />
<text x="700" y="850" font-size="16" font-family="Verdana" fill="#0f172a">Forecast-aware MPC</text>
<text x="710" y="120" font-size="16" font-family="Verdana" fill="#0f172a">Summary</text>
<text x="710" y="148" font-size="13" font-family="Verdana" fill="#334155">Reactive min temp: 21.75 C</text>
<text x="710" y="168" font-size="13" font-family="Verdana" fill="#334155">MPC min temp: 22.87 C</text>
<text x="710" y="188" font-size="13" font-family="Verdana" fill="#334155">Reactive energy: 10.13 kWh</text>
<text x="710" y="208" font-size="13" font-family="Verdana" fill="#334155">MPC energy: 10.88 kWh</text>
<text x="710" y="228" font-size="13" font-family="Verdana" fill="#334155">Front threshold crossed at step 21</text>
<text x="366.0" y="110" font-size="12" font-family="Verdana" fill="#b91c1c">forecast cold front</text>
</svg>